<mxfile host="app.diagrams.net" modified="2023-05-29T15:49:09.948Z" agent="Mozilla/5.0 (X11; Linux x86_64) AppleWebKit/537.36 (KHTML, like Gecko) Chrome/113.0.0.0 Safari/537.36" etag="O6KQA1NtbbITLQ8tp34i" version="21.3.5" type="device">
  <diagram name="PÃ¡gina-1" id="8y7hkBit5efz2z61bQLW">
    <mxGraphModel dx="1079" dy="1754" grid="1" gridSize="10" guides="1" tooltips="1" connect="1" arrows="1" fold="1" page="1" pageScale="1" pageWidth="827" pageHeight="1169" math="0" shadow="0">
      <root>
        <mxCell id="0" />
        <mxCell id="1" parent="0" />
        <mxCell id="MxKCkwWiX9baxo1fZTRV-38" value="" style="rounded=0;whiteSpace=wrap;html=1;fillColor=none;" vertex="1" parent="1">
          <mxGeometry x="133" y="-10" width="560" height="810" as="geometry" />
        </mxCell>
        <mxCell id="MxKCkwWiX9baxo1fZTRV-1" value="Config Server" style="rounded=0;whiteSpace=wrap;html=1;" vertex="1" parent="1">
          <mxGeometry x="320" y="40" width="70" height="60" as="geometry" />
        </mxCell>
        <mxCell id="MxKCkwWiX9baxo1fZTRV-2" value="PROCESS&lt;br&gt;SERVICE" style="rounded=0;whiteSpace=wrap;html=1;" vertex="1" parent="1">
          <mxGeometry x="180" y="230" width="70" height="60" as="geometry" />
        </mxCell>
        <mxCell id="MxKCkwWiX9baxo1fZTRV-3" value="RABBIT" style="rounded=0;whiteSpace=wrap;html=1;" vertex="1" parent="1">
          <mxGeometry x="320" y="230" width="70" height="60" as="geometry" />
        </mxCell>
        <mxCell id="MxKCkwWiX9baxo1fZTRV-4" value="WORKER" style="rounded=0;whiteSpace=wrap;html=1;" vertex="1" parent="1">
          <mxGeometry x="430" y="160" width="70" height="60" as="geometry" />
        </mxCell>
        <mxCell id="MxKCkwWiX9baxo1fZTRV-5" value="WORKER" style="rounded=0;whiteSpace=wrap;html=1;" vertex="1" parent="1">
          <mxGeometry x="430" y="230" width="70" height="60" as="geometry" />
        </mxCell>
        <mxCell id="MxKCkwWiX9baxo1fZTRV-6" value="WORKER" style="rounded=0;whiteSpace=wrap;html=1;" vertex="1" parent="1">
          <mxGeometry x="430" y="300" width="70" height="60" as="geometry" />
        </mxCell>
        <mxCell id="MxKCkwWiX9baxo1fZTRV-7" value="SQL&lt;br&gt;DATA" style="rounded=0;whiteSpace=wrap;html=1;" vertex="1" parent="1">
          <mxGeometry x="330" y="410" width="70" height="60" as="geometry" />
        </mxCell>
        <mxCell id="MxKCkwWiX9baxo1fZTRV-9" value="PRODUCER API" style="rounded=0;whiteSpace=wrap;html=1;" vertex="1" parent="1">
          <mxGeometry x="500" y="480" width="70" height="60" as="geometry" />
        </mxCell>
        <mxCell id="MxKCkwWiX9baxo1fZTRV-10" value="CONSUMER&lt;br&gt;API" style="rounded=0;whiteSpace=wrap;html=1;" vertex="1" parent="1">
          <mxGeometry x="500" y="570" width="70" height="60" as="geometry" />
        </mxCell>
        <mxCell id="MxKCkwWiX9baxo1fZTRV-11" value="VALIDATOR&lt;br&gt;API" style="rounded=0;whiteSpace=wrap;html=1;" vertex="1" parent="1">
          <mxGeometry x="500" y="390" width="70" height="60" as="geometry" />
        </mxCell>
        <mxCell id="MxKCkwWiX9baxo1fZTRV-12" value="MONGO&lt;br&gt;DATA" style="rounded=0;whiteSpace=wrap;html=1;" vertex="1" parent="1">
          <mxGeometry x="330" y="510" width="70" height="60" as="geometry" />
        </mxCell>
        <mxCell id="MxKCkwWiX9baxo1fZTRV-13" value="AUTH&lt;br&gt;SERVICE" style="rounded=0;whiteSpace=wrap;html=1;" vertex="1" parent="1">
          <mxGeometry x="330" y="650" width="70" height="60" as="geometry" />
        </mxCell>
        <mxCell id="MxKCkwWiX9baxo1fZTRV-15" value="GATEWAY" style="rounded=0;whiteSpace=wrap;html=1;" vertex="1" parent="1">
          <mxGeometry x="100" y="650" width="70" height="60" as="geometry" />
        </mxCell>
        <mxCell id="MxKCkwWiX9baxo1fZTRV-16" value="DATA INTEGRITY" style="rounded=0;whiteSpace=wrap;html=1;" vertex="1" parent="1">
          <mxGeometry x="480" y="40" width="70" height="60" as="geometry" />
        </mxCell>
        <mxCell id="MxKCkwWiX9baxo1fZTRV-17" value="" style="endArrow=classic;html=1;rounded=0;exitX=1;exitY=0.5;exitDx=0;exitDy=0;entryX=0;entryY=0.5;entryDx=0;entryDy=0;" edge="1" parent="1" source="MxKCkwWiX9baxo1fZTRV-15" target="MxKCkwWiX9baxo1fZTRV-13">
          <mxGeometry width="50" height="50" relative="1" as="geometry">
            <mxPoint x="480" y="470" as="sourcePoint" />
            <mxPoint x="530" y="420" as="targetPoint" />
          </mxGeometry>
        </mxCell>
        <mxCell id="MxKCkwWiX9baxo1fZTRV-18" value="" style="endArrow=classic;html=1;rounded=0;exitX=1;exitY=0.5;exitDx=0;exitDy=0;entryX=1;entryY=0.5;entryDx=0;entryDy=0;" edge="1" parent="1" source="MxKCkwWiX9baxo1fZTRV-13" target="MxKCkwWiX9baxo1fZTRV-11">
          <mxGeometry width="50" height="50" relative="1" as="geometry">
            <mxPoint x="480" y="470" as="sourcePoint" />
            <mxPoint x="540" y="800" as="targetPoint" />
            <Array as="points">
              <mxPoint x="620" y="680" />
              <mxPoint x="620" y="420" />
            </Array>
          </mxGeometry>
        </mxCell>
        <mxCell id="MxKCkwWiX9baxo1fZTRV-19" value="" style="endArrow=classic;html=1;rounded=0;entryX=1;entryY=0.5;entryDx=0;entryDy=0;" edge="1" parent="1" target="MxKCkwWiX9baxo1fZTRV-9">
          <mxGeometry width="50" height="50" relative="1" as="geometry">
            <mxPoint x="620" y="510" as="sourcePoint" />
            <mxPoint x="530" y="420" as="targetPoint" />
          </mxGeometry>
        </mxCell>
        <mxCell id="MxKCkwWiX9baxo1fZTRV-20" value="" style="endArrow=classic;html=1;rounded=0;entryX=1;entryY=0.5;entryDx=0;entryDy=0;" edge="1" parent="1" target="MxKCkwWiX9baxo1fZTRV-10">
          <mxGeometry width="50" height="50" relative="1" as="geometry">
            <mxPoint x="620" y="600" as="sourcePoint" />
            <mxPoint x="530" y="420" as="targetPoint" />
          </mxGeometry>
        </mxCell>
        <mxCell id="MxKCkwWiX9baxo1fZTRV-21" value="" style="endArrow=classic;html=1;rounded=0;" edge="1" parent="1">
          <mxGeometry width="50" height="50" relative="1" as="geometry">
            <mxPoint x="295" y="680" as="sourcePoint" />
            <mxPoint x="435" y="680" as="targetPoint" />
            <Array as="points">
              <mxPoint x="295" y="740" />
              <mxPoint x="435" y="740" />
            </Array>
          </mxGeometry>
        </mxCell>
        <mxCell id="MxKCkwWiX9baxo1fZTRV-22" value="" style="dashed=0;outlineConnect=0;html=1;align=center;labelPosition=center;verticalLabelPosition=bottom;verticalAlign=top;shape=mxgraph.webicons.mongodb;gradientColor=#DFDEDE" vertex="1" parent="1">
          <mxGeometry x="210" y="510" width="60" height="62.4" as="geometry" />
        </mxCell>
        <mxCell id="MxKCkwWiX9baxo1fZTRV-23" value="" style="endArrow=classic;html=1;rounded=0;exitX=0;exitY=0.5;exitDx=0;exitDy=0;" edge="1" parent="1" source="MxKCkwWiX9baxo1fZTRV-12" target="MxKCkwWiX9baxo1fZTRV-22">
          <mxGeometry width="50" height="50" relative="1" as="geometry">
            <mxPoint x="480" y="470" as="sourcePoint" />
            <mxPoint x="530" y="420" as="targetPoint" />
          </mxGeometry>
        </mxCell>
        <mxCell id="MxKCkwWiX9baxo1fZTRV-24" value="" style="image;aspect=fixed;html=1;points=[];align=center;fontSize=12;image=img/lib/azure2/databases/SQL_Database.svg;" vertex="1" parent="1">
          <mxGeometry x="216" y="406" width="48" height="64" as="geometry" />
        </mxCell>
        <mxCell id="MxKCkwWiX9baxo1fZTRV-25" value="" style="endArrow=classic;html=1;rounded=0;exitX=0;exitY=0.5;exitDx=0;exitDy=0;" edge="1" parent="1" source="MxKCkwWiX9baxo1fZTRV-7">
          <mxGeometry width="50" height="50" relative="1" as="geometry">
            <mxPoint x="480" y="470" as="sourcePoint" />
            <mxPoint x="270" y="440" as="targetPoint" />
          </mxGeometry>
        </mxCell>
        <mxCell id="MxKCkwWiX9baxo1fZTRV-26" value="" style="endArrow=classic;html=1;rounded=0;exitX=1;exitY=0.5;exitDx=0;exitDy=0;entryX=0;entryY=0.5;entryDx=0;entryDy=0;" edge="1" parent="1" source="MxKCkwWiX9baxo1fZTRV-3" target="MxKCkwWiX9baxo1fZTRV-4">
          <mxGeometry width="50" height="50" relative="1" as="geometry">
            <mxPoint x="480" y="470" as="sourcePoint" />
            <mxPoint x="530" y="420" as="targetPoint" />
          </mxGeometry>
        </mxCell>
        <mxCell id="MxKCkwWiX9baxo1fZTRV-27" value="" style="endArrow=classic;html=1;rounded=0;exitX=1;exitY=0.5;exitDx=0;exitDy=0;" edge="1" parent="1" source="MxKCkwWiX9baxo1fZTRV-3" target="MxKCkwWiX9baxo1fZTRV-5">
          <mxGeometry width="50" height="50" relative="1" as="geometry">
            <mxPoint x="480" y="470" as="sourcePoint" />
            <mxPoint x="530" y="420" as="targetPoint" />
          </mxGeometry>
        </mxCell>
        <mxCell id="MxKCkwWiX9baxo1fZTRV-28" value="" style="endArrow=classic;html=1;rounded=0;exitX=1;exitY=0.5;exitDx=0;exitDy=0;entryX=0;entryY=0.5;entryDx=0;entryDy=0;" edge="1" parent="1" source="MxKCkwWiX9baxo1fZTRV-3" target="MxKCkwWiX9baxo1fZTRV-6">
          <mxGeometry width="50" height="50" relative="1" as="geometry">
            <mxPoint x="480" y="470" as="sourcePoint" />
            <mxPoint x="530" y="420" as="targetPoint" />
          </mxGeometry>
        </mxCell>
        <mxCell id="MxKCkwWiX9baxo1fZTRV-29" value="" style="endArrow=classic;html=1;rounded=0;exitX=1;exitY=0.5;exitDx=0;exitDy=0;entryX=0;entryY=0.5;entryDx=0;entryDy=0;" edge="1" parent="1" source="MxKCkwWiX9baxo1fZTRV-2" target="MxKCkwWiX9baxo1fZTRV-3">
          <mxGeometry width="50" height="50" relative="1" as="geometry">
            <mxPoint x="480" y="470" as="sourcePoint" />
            <mxPoint x="530" y="420" as="targetPoint" />
          </mxGeometry>
        </mxCell>
        <mxCell id="MxKCkwWiX9baxo1fZTRV-30" value="" style="endArrow=classic;html=1;rounded=0;exitX=0.035;exitY=0.577;exitDx=0;exitDy=0;entryX=0.5;entryY=0;entryDx=0;entryDy=0;exitPerimeter=0;" edge="1" parent="1" source="MxKCkwWiX9baxo1fZTRV-2" target="MxKCkwWiX9baxo1fZTRV-7">
          <mxGeometry width="50" height="50" relative="1" as="geometry">
            <mxPoint x="480" y="470" as="sourcePoint" />
            <mxPoint x="530" y="420" as="targetPoint" />
            <Array as="points">
              <mxPoint x="150" y="265" />
              <mxPoint x="150" y="360" />
              <mxPoint x="365" y="360" />
            </Array>
          </mxGeometry>
        </mxCell>
        <mxCell id="MxKCkwWiX9baxo1fZTRV-33" value="" style="endArrow=classic;html=1;rounded=0;exitX=0;exitY=0.5;exitDx=0;exitDy=0;entryX=1;entryY=0.5;entryDx=0;entryDy=0;" edge="1" parent="1" source="MxKCkwWiX9baxo1fZTRV-11" target="MxKCkwWiX9baxo1fZTRV-7">
          <mxGeometry width="50" height="50" relative="1" as="geometry">
            <mxPoint x="480" y="470" as="sourcePoint" />
            <mxPoint x="530" y="420" as="targetPoint" />
          </mxGeometry>
        </mxCell>
        <mxCell id="MxKCkwWiX9baxo1fZTRV-34" value="" style="endArrow=classic;html=1;rounded=0;exitX=0;exitY=0.5;exitDx=0;exitDy=0;entryX=1;entryY=0.5;entryDx=0;entryDy=0;" edge="1" parent="1" source="MxKCkwWiX9baxo1fZTRV-9" target="MxKCkwWiX9baxo1fZTRV-12">
          <mxGeometry width="50" height="50" relative="1" as="geometry">
            <mxPoint x="480" y="470" as="sourcePoint" />
            <mxPoint x="530" y="420" as="targetPoint" />
          </mxGeometry>
        </mxCell>
        <mxCell id="MxKCkwWiX9baxo1fZTRV-35" value="" style="endArrow=classic;html=1;rounded=0;exitX=0;exitY=0.5;exitDx=0;exitDy=0;entryX=1;entryY=0.5;entryDx=0;entryDy=0;" edge="1" parent="1" source="MxKCkwWiX9baxo1fZTRV-10" target="MxKCkwWiX9baxo1fZTRV-12">
          <mxGeometry width="50" height="50" relative="1" as="geometry">
            <mxPoint x="480" y="470" as="sourcePoint" />
            <mxPoint x="530" y="420" as="targetPoint" />
          </mxGeometry>
        </mxCell>
        <mxCell id="MxKCkwWiX9baxo1fZTRV-36" value="" style="endArrow=classic;html=1;rounded=0;entryX=1;entryY=0.5;entryDx=0;entryDy=0;exitX=0;exitY=0.5;exitDx=0;exitDy=0;" edge="1" parent="1" source="MxKCkwWiX9baxo1fZTRV-9" target="MxKCkwWiX9baxo1fZTRV-7">
          <mxGeometry width="50" height="50" relative="1" as="geometry">
            <mxPoint x="480" y="470" as="sourcePoint" />
            <mxPoint x="530" y="420" as="targetPoint" />
          </mxGeometry>
        </mxCell>
        <mxCell id="MxKCkwWiX9baxo1fZTRV-37" value="" style="endArrow=classic;html=1;rounded=0;entryX=1;entryY=0.5;entryDx=0;entryDy=0;" edge="1" parent="1" target="MxKCkwWiX9baxo1fZTRV-7">
          <mxGeometry width="50" height="50" relative="1" as="geometry">
            <mxPoint x="500" y="600" as="sourcePoint" />
            <mxPoint x="530" y="420" as="targetPoint" />
          </mxGeometry>
        </mxCell>
        <mxCell id="MxKCkwWiX9baxo1fZTRV-39" value="" style="endArrow=classic;html=1;rounded=0;exitX=0.5;exitY=0;exitDx=0;exitDy=0;entryX=0.5;entryY=0;entryDx=0;entryDy=0;" edge="1" parent="1" source="MxKCkwWiX9baxo1fZTRV-13" target="MxKCkwWiX9baxo1fZTRV-7">
          <mxGeometry width="50" height="50" relative="1" as="geometry">
            <mxPoint x="480" y="470" as="sourcePoint" />
            <mxPoint x="365" y="360" as="targetPoint" />
            <Array as="points">
              <mxPoint x="365" y="630" />
              <mxPoint x="190" y="630" />
              <mxPoint x="190" y="490" />
              <mxPoint x="190" y="360" />
              <mxPoint x="365" y="360" />
            </Array>
          </mxGeometry>
        </mxCell>
        <mxCell id="MxKCkwWiX9baxo1fZTRV-40" value="8001" style="text;html=1;strokeColor=none;fillColor=none;align=center;verticalAlign=middle;whiteSpace=wrap;rounded=0;" vertex="1" parent="1">
          <mxGeometry x="325" y="14" width="60" height="30" as="geometry" />
        </mxCell>
        <mxCell id="MxKCkwWiX9baxo1fZTRV-41" value="NO PORT" style="text;html=1;strokeColor=none;fillColor=none;align=center;verticalAlign=middle;whiteSpace=wrap;rounded=0;" vertex="1" parent="1">
          <mxGeometry x="485" y="13" width="60" height="30" as="geometry" />
        </mxCell>
        <mxCell id="MxKCkwWiX9baxo1fZTRV-42" value="5672" style="text;html=1;strokeColor=none;fillColor=none;align=center;verticalAlign=middle;whiteSpace=wrap;rounded=0;" vertex="1" parent="1">
          <mxGeometry x="325" y="204" width="60" height="30" as="geometry" />
        </mxCell>
        <mxCell id="MxKCkwWiX9baxo1fZTRV-43" value="8765" style="text;html=1;strokeColor=none;fillColor=none;align=center;verticalAlign=middle;whiteSpace=wrap;rounded=0;" vertex="1" parent="1">
          <mxGeometry x="435" y="135" width="60" height="30" as="geometry" />
        </mxCell>
        <mxCell id="MxKCkwWiX9baxo1fZTRV-44" value="8765" style="text;html=1;strokeColor=none;fillColor=none;align=center;verticalAlign=middle;whiteSpace=wrap;rounded=0;" vertex="1" parent="1">
          <mxGeometry x="185" y="204" width="60" height="30" as="geometry" />
        </mxCell>
        <mxCell id="MxKCkwWiX9baxo1fZTRV-46" value="3306" style="text;html=1;strokeColor=none;fillColor=none;align=center;verticalAlign=middle;whiteSpace=wrap;rounded=0;" vertex="1" parent="1">
          <mxGeometry x="210" y="380" width="60" height="30" as="geometry" />
        </mxCell>
        <mxCell id="MxKCkwWiX9baxo1fZTRV-47" value="27017" style="text;html=1;strokeColor=none;fillColor=none;align=center;verticalAlign=middle;whiteSpace=wrap;rounded=0;" vertex="1" parent="1">
          <mxGeometry x="210" y="490" width="60" height="30" as="geometry" />
        </mxCell>
        <mxCell id="MxKCkwWiX9baxo1fZTRV-48" value="8080" style="text;html=1;strokeColor=none;fillColor=none;align=center;verticalAlign=middle;whiteSpace=wrap;rounded=0;" vertex="1" parent="1">
          <mxGeometry x="120" y="628" width="60" height="30" as="geometry" />
        </mxCell>
        <mxCell id="MxKCkwWiX9baxo1fZTRV-49" value="8098" style="text;html=1;strokeColor=none;fillColor=none;align=center;verticalAlign=middle;whiteSpace=wrap;rounded=0;" vertex="1" parent="1">
          <mxGeometry x="335" y="710" width="60" height="30" as="geometry" />
        </mxCell>
        <mxCell id="MxKCkwWiX9baxo1fZTRV-50" value="8210" style="text;html=1;strokeColor=none;fillColor=none;align=center;verticalAlign=middle;whiteSpace=wrap;rounded=0;" vertex="1" parent="1">
          <mxGeometry x="505" y="546.4" width="60" height="30" as="geometry" />
        </mxCell>
        <mxCell id="MxKCkwWiX9baxo1fZTRV-51" value="8321" style="text;html=1;strokeColor=none;fillColor=none;align=center;verticalAlign=middle;whiteSpace=wrap;rounded=0;" vertex="1" parent="1">
          <mxGeometry x="505" y="454" width="60" height="30" as="geometry" />
        </mxCell>
        <mxCell id="MxKCkwWiX9baxo1fZTRV-52" value="8432" style="text;html=1;strokeColor=none;fillColor=none;align=center;verticalAlign=middle;whiteSpace=wrap;rounded=0;" vertex="1" parent="1">
          <mxGeometry x="505" y="365" width="60" height="30" as="geometry" />
        </mxCell>
        <mxCell id="MxKCkwWiX9baxo1fZTRV-53" value="8654" style="text;html=1;strokeColor=none;fillColor=none;align=center;verticalAlign=middle;whiteSpace=wrap;rounded=0;" vertex="1" parent="1">
          <mxGeometry x="335" y="561" width="60" height="30" as="geometry" />
        </mxCell>
        <mxCell id="MxKCkwWiX9baxo1fZTRV-54" value="8543" style="text;html=1;strokeColor=none;fillColor=none;align=center;verticalAlign=middle;whiteSpace=wrap;rounded=0;" vertex="1" parent="1">
          <mxGeometry x="335" y="465" width="60" height="30" as="geometry" />
        </mxCell>
        <mxCell id="MxKCkwWiX9baxo1fZTRV-55" value="" style="endArrow=classic;html=1;rounded=0;exitX=0;exitY=0.5;exitDx=0;exitDy=0;entryX=0.5;entryY=1;entryDx=0;entryDy=0;" edge="1" parent="1" source="MxKCkwWiX9baxo1fZTRV-11" target="MxKCkwWiX9baxo1fZTRV-2">
          <mxGeometry width="50" height="50" relative="1" as="geometry">
            <mxPoint x="420" y="460" as="sourcePoint" />
            <mxPoint x="470" y="410" as="targetPoint" />
            <Array as="points">
              <mxPoint x="450" y="420" />
              <mxPoint x="410" y="420" />
              <mxPoint x="410" y="330" />
              <mxPoint x="215" y="330" />
            </Array>
          </mxGeometry>
        </mxCell>
      </root>
    </mxGraphModel>
  </diagram>
</mxfile>
